<?xml version="1.0" encoding="utf-8"?>
<!-- Generator: Adobe Illustrator 24.2.0, SVG Export Plug-In . SVG Version: 6.00 Build 0)  -->
<svg version="1.1" id="Layer_1" xmlns="http://www.w3.org/2000/svg" xmlns:xlink="http://www.w3.org/1999/xlink" x="0px" y="0px"
	 width="60px" height="310px" viewBox="0 0 60 310" style="enable-background:new 0 0 60 310;" xml:space="preserve">
<g>
	<path d="M48.8,108.4v4.9h3.8c0,0.9,0,1.8,0.1,2.5c0.4,0.1,0.7,0.3,1.1,0.4c0.9-0.8,1.6-1.5,2-2l1.5,0.9c-0.5,0.5-1.1,1.2-1.8,1.8
		c0.8,0.4,1.6,0.7,2.3,1.2l-1,1.6c-1.3-0.8-2.5-1.5-3.8-2c0.1,0.7,0.2,1.2,0.4,1.6c0.4,1.1,1,1.8,1.8,1.9c0.5,0,0.9-0.6,1.2-1.6
		l1.7,0.9c-0.4,0.9-0.8,1.6-1.3,2.1c-0.4,0.3-0.8,0.5-1.3,0.5c-1.5-0.1-2.7-1-3.5-2.8c-0.5-1.2-0.8-3-0.8-5.3h-2v8.1H47v-8.1h-2.4
		c-0.3,3.7-1.4,6.4-3.4,8.2l-1.4-1.3c1.8-1.5,2.8-3.8,3-7h-2.7v-1.7h2.7v-2.1c-0.7,0.2-1.4,0.5-2.1,0.6l-1-1.7
		c2.4-0.6,4.2-1.3,5.4-2.2l1.1,1.4c-0.5,0.4-1,0.7-1.6,1v2.8H47v-4.9H48.8z M51.7,111.8c-0.5-1-0.8-2.5-0.8-4.3h-9.1v-1.8h10.9
		c0,0.7,0,1.4,0,1.9l0.9,0.3c0.7-0.7,1.3-1.3,1.6-1.8l1.5,0.9c-0.4,0.5-0.9,0.9-1.5,1.5c0.7,0.3,1.3,0.6,1.9,0.8l-1,1.5
		c-1.1-0.6-2.2-1-3.3-1.4c0.1,0.5,0.2,0.9,0.3,1.2c0.4,0.9,0.9,1.5,1.5,1.6c0.5,0,1-0.5,1.4-1.3l1.8,1c-0.4,0.8-0.9,1.4-1.5,1.8
		c-0.4,0.3-0.9,0.5-1.5,0.5C53.5,114,52.4,113.2,51.7,111.8z"/>
	<path d="M45.5,133.4c-1.1,2.2-2.8,4.1-5.3,5.8l-0.6-1.9c1.9-1.4,3.3-2.9,4.2-4.7L45.5,133.4z M46.4,137.9c-0.5,1.1-1.2,2.1-2,3v9.7
		h-1.8v-7.9c-0.7,0.6-1.5,1.2-2.3,1.8l-0.6-1.8c2.2-1.6,3.9-3.4,5-5.5L46.4,137.9z M57.6,138.5v1.8h-3.1v8.3c0,1.3-0.7,1.9-2.1,1.9
		h-2.8l-0.4-1.8c0.9,0.1,1.8,0.1,2.6,0.1c0.6,0,0.9-0.2,0.9-0.6v-7.9h-6v-1.8H57.6z M56.7,133.6v1.8h-9.6v-1.8H56.7z"/>
	<path d="M42.1,173.3c-0.1,1.7-0.4,3.2-0.8,4.5l-1.7-0.5c0.4-1.2,0.7-2.6,0.8-4.2L42.1,173.3z M47.3,171.6l-1.5,0.4l-0.2-0.9
		c-1.8,0.6-3.6,1-5.2,1.2l-0.5-1.7c0.3-0.1,0.6-0.3,0.8-0.5c0.6-0.6,1.4-1.6,2.4-3c-0.9,0.2-1.9,0.3-2.9,0.5l-0.5-1.7
		c0.3-0.1,0.6-0.4,0.8-0.7c1-1.6,1.8-3.3,2.5-5.3l1.8,0.7c-0.9,2.1-1.9,3.8-2.9,5.1c0.7-0.1,1.5-0.2,2.2-0.4
		c0.4-0.7,0.8-1.4,1.3-2.2l1.7,0.6c-1.8,2.9-3.3,5.1-4.6,6.5c0.8-0.2,1.7-0.4,2.5-0.6c-0.2-0.5-0.3-1-0.5-1.5l1.4-0.5
		C46.5,168.9,46.9,170.1,47.3,171.6z M45,176.9l-1.7,0.4c-0.2-1.5-0.4-2.9-0.6-4l1.5-0.3C44.5,174.1,44.7,175.4,45,176.9z
		 M47.7,175.3l-1.5,0.7c-0.4-1.2-0.7-2.3-1.2-3.2l1.5-0.5C46.9,173.3,47.3,174.2,47.7,175.3z M56.5,160.7v1.6
		c-0.6,1.8-1.5,3.3-2.8,4.6c0.4,0.3,0.9,0.6,1.4,0.8c0.8,0.4,1.7,0.8,2.6,1.1l-1,1.5c-1-0.4-2-0.8-2.9-1.4c-0.5-0.3-1-0.6-1.4-0.9
		c-1.3,1-2.8,1.8-4.7,2.4l-0.6-1.6c1.5-0.5,2.9-1.2,4-2c-0.6-0.7-1.2-1.4-1.7-2.2c-0.4-0.7-0.7-1.4-0.9-2.2h-1v-1.7H56.5z
		 M51.5,171.3v-1.9h1.8v1.9h3.5v1.7h-3.5v2.9h4.3v1.7H47.1v-1.7h4.4V173h-3.5v-1.7H51.5z M51.1,164.2c0.4,0.6,0.8,1.1,1.3,1.5
		c1-1,1.8-2.1,2.4-3.4h-4.5C50.4,163,50.7,163.6,51.1,164.2z"/>
	<path d="M46.9,188.1v4.1c1.7-1.3,2.8-2.9,3.4-4.8l1.8,0.4c-0.1,0.4-0.3,0.8-0.5,1.2h4.6v1.4c-0.6,1.6-1.5,2.9-2.7,4.1
		c1.2,0.9,2.7,1.7,4.4,2.2l-1,1.5c-1.8-0.6-3.4-1.5-4.7-2.6c-1.3,1-2.8,1.9-4.6,2.7l-1.1-1.5c1.7-0.7,3.2-1.5,4.5-2.4
		c-0.6-0.7-1.1-1.4-1.5-2.1c-0.5,0.5-1,0.9-1.5,1.4l-1-1.4v2.3H45v2.7h1.8v1.8H45v3.1c0.8-0.3,1.6-0.5,2.3-0.8v1.9
		c-2.1,0.7-4.4,1.5-7.2,2.1l-0.5-1.8l0.9-0.2v-6.9h1.7v6.5c0.4-0.1,0.7-0.2,1.1-0.3v-8.1h-2.8v-6.6H46.9z M45.1,189.9h-2.8v3.1h2.8
		V189.9z M56.2,205.6h-1.8v-0.7h-4.3v0.7h-1.8v-7.5h7.9V205.6z M54.4,203.1v-3.4h-4.3v3.4H54.4z M52.2,193.4c0.8-0.8,1.5-1.7,2-2.7
		h-3.5c-0.1,0.1-0.2,0.2-0.2,0.3C51,191.9,51.6,192.6,52.2,193.4z"/>
</g>
<g>
	<path d="M16.4,23.6h-7v3.7h4.1v2.1H9.4v6.3H7.2V21.5h9.2V23.6z"/>
	<path d="M16.3,60.2H7.1V46h2.1v12.1h7.1V60.2z"/>
	<path d="M12.4,84.6h-2.1V70.4h2.1V84.6z"/>
	<path d="M17,103.5c0,3.7-2.2,5.8-5.4,5.8c-3.7,0-6-3-6-7.3c0-4.3,2.3-7.3,6-7.3c2.3,0,3.9,0.9,4.8,2.7l-1.9,1.2
		c-0.7-1.2-1.5-1.7-3-1.7c-2.5,0-3.8,2-3.8,5.2c0,3.2,1.4,5.2,3.8,5.2c2.3,0,3.2-1.5,3.2-3.2v-0.1h-2.3v-2.1H17V103.5z"/>
	<path d="M16.7,133.5h-2.1v-6.3H8v6.3H5.9v-14.2H8v5.8h6.6v-5.8h2.1V133.5z"/>
	<path d="M16.5,145.7h-4.2v12.1h-2.1v-12.1H6.1v-2.1h10.4V145.7z"/>
	<path d="M17.1,182.1c0,2.9-2,4.5-4.7,4.5H8.6v5.3H6.5v-14.2h6C15.1,177.6,17.1,179.1,17.1,182.1z M14.9,182.1c0-1.6-1-2.4-2.4-2.4
		H8.6v4.9h3.8C14.1,184.6,14.9,183.6,14.9,182.1z"/>
	<path d="M17.6,216.3h-2.3l-1.2-3.4H8.4l-1.2,3.4H5l5.1-14.2h2.3L17.6,216.3z M13.5,211l-1.1-3.3c-0.3-1-0.9-2.7-1.1-3.3
		c-0.2,0.6-0.7,2.2-1,3.3L9.1,211H13.5z"/>
	<path d="M16.5,228.6h-4.2v12.1h-2.1v-12.1H6.1v-2.1h10.4V228.6z"/>
	<path d="M16.7,265.2h-2.1v-6.3H8v6.3H5.9v-14.2H8v5.8h6.6v-5.8h2.1V265.2z"/>
	<path d="M16.3,285.5c0,2.6-1.6,4.3-5.3,4.3c-2.1,0-3.9-0.9-5.1-2.3l1.5-1.5c1,1,2.4,1.7,3.7,1.7c2,0,3-0.7,3-2.1
		c0-1.1-0.8-1.6-3.2-2.4c-3-0.9-4.5-1.6-4.5-4.2c0-2.5,2.1-4,4.7-4c1.9,0,3.4,0.7,4.7,1.9l-1.5,1.5c-0.9-0.9-1.9-1.4-3.3-1.4
		c-1.7,0-2.4,0.8-2.4,1.8c0,1,0.7,1.5,3.1,2.2C14.6,282,16.3,282.9,16.3,285.5z"/>
</g>
<g>
	<rect x="47.7" y="0.7" width="1.3" height="92.4"/>
</g>
<g>
	<rect x="0" width="22" height="1.3"/>
</g>
<g>
	<rect x="0" y="308.7" width="22" height="1.3"/>
</g>
<g>
	<rect x="47.7" y="216.9" width="1.3" height="92.4"/>
</g>
</svg>
