<?xml version="1.0" standalone="no"?>
<!DOCTYPE svg PUBLIC "-//W3C//DTD SVG 20010904//EN"
 "http://www.w3.org/TR/2001/REC-SVG-20010904/DTD/svg10.dtd">
<svg version="1.0" xmlns="http://www.w3.org/2000/svg"
 width="1000.000000pt" height="1000.000000pt" viewBox="0 0 1000.000000 1000.000000"
 preserveAspectRatio="xMidYMid meet">
<metadata>
Created by potrace 1.11, written by Peter Selinger 2001-2013
</metadata>
<g transform="translate(0.000000,1000.000000) scale(0.100000,-0.100000)"
fill="#000000" stroke="none">
<path d="M4700 9614 c-454 -39 -776 -103 -1157 -229 -1259 -416 -2283 -1362
-2802 -2588 -126 -297 -241 -692 -295 -1007 -51 -299 -60 -421 -60 -790 0
-268 4 -378 17 -495 130 -1094 596 -2054 1359 -2801 753 -737 1674 -1174 2743
-1301 213 -25 777 -25 990 0 1186 141 2227 684 2988 1560 626 721 998 1569
1114 2542 25 213 25 777 0 990 -114 954 -478 1799 -1081 2504 -765 896 -1822
1456 -3011 1596 -133 16 -690 29 -805 19z m-1647 -1827 l108 -43 -67 -135
c-74 -150 -155 -292 -221 -388 -24 -35 -42 -66 -39 -69 3 -3 59 3 123 14 l118
19 72 120 c40 66 74 125 76 130 4 10 167 -41 195 -61 14 -10 2 -34 -88 -174
-116 -182 -231 -345 -329 -469 -101 -128 -99 -123 -70 -117 100 22 255 59 258
62 1 1 -9 39 -24 84 -15 45 -23 85 -19 90 14 12 143 52 155 48 6 -2 22 -33 35
-68 32 -84 116 -372 111 -377 -9 -9 -177 -51 -180 -45 -2 4 -10 28 -17 55 -10
36 -17 46 -29 43 -9 -3 -45 -14 -81 -25 -138 -43 -505 -120 -515 -109 -3 3
-55 184 -55 191 0 3 20 17 43 31 54 31 138 121 234 249 110 148 116 137 -55
110 -81 -13 -156 -22 -166 -21 -15 2 -25 23 -46 98 l-27 94 31 21 c17 11 48
45 68 75 48 70 215 407 260 522 18 49 33 88 33 88 1 0 49 -19 108 -43z m1485
-159 c-3 -107 -5 -118 -44 -204 -50 -111 -129 -235 -214 -333 -73 -84 -76 -73
40 -141 66 -38 244 -118 313 -140 20 -6 37 -15 37 -19 0 -7 -93 -156 -106
-170 -15 -16 -306 126 -430 210 -40 27 -75 49 -78 49 -3 0 -43 -25 -89 -55
-128 -83 -404 -215 -450 -215 -11 0 -70 125 -79 168 -2 8 30 26 82 46 104 41
233 105 317 158 l63 40 -46 51 c-97 108 -189 265 -230 392 l-22 70 -61 3 -61
3 0 99 0 100 531 0 531 0 -4 -112z m2322 -8 l5 -114 48 -15 49 -15 72 74 c40
41 83 90 97 107 l24 32 88 -52 c48 -28 87 -54 87 -58 0 -3 -36 -44 -80 -91
l-79 -85 101 -44 c55 -24 102 -49 105 -55 2 -7 -18 -47 -47 -88 -28 -42 -48
-81 -45 -86 3 -5 46 -30 95 -57 50 -26 90 -52 90 -58 0 -23 -84 -137 -135
-183 -90 -83 -209 -105 -328 -64 -185 65 -300 241 -343 522 -7 52 -14 125 -14
162 l0 68 -537 2 -538 3 -3 94 c-1 52 0 100 2 108 5 11 119 13 643 11 l638 -3
5 -115z m-811 -239 c33 -44 61 -82 61 -84 0 -3 -40 -31 -90 -63 l-90 -57 0
-163 0 -164 130 0 130 0 0 285 0 285 110 0 110 0 0 -285 0 -285 223 -2 222 -3
3 -147 3 -146 65 -26 66 -27 61 58 c34 32 86 85 117 119 l55 61 75 -45 c41
-25 81 -50 88 -57 10 -9 -10 -33 -94 -115 -59 -57 -103 -105 -98 -107 41 -15
248 -131 246 -139 -1 -5 -27 -48 -58 -96 l-55 -87 -67 41 c-73 46 -374 200
-379 194 -2 -1 3 -38 12 -81 16 -84 58 -184 101 -240 33 -44 101 -85 139 -85
37 0 86 53 116 124 12 31 27 56 32 56 17 0 179 -93 183 -105 7 -17 -38 -105
-93 -182 -63 -90 -115 -118 -218 -118 -67 0 -90 5 -139 28 -108 50 -192 139
-260 275 -56 110 -106 376 -106 558 l0 84 -120 0 -120 0 0 -480 0 -481 -107 3
-108 3 -3 478 -2 477 -134 0 -133 0 -12 -102 c-32 -266 -103 -484 -216 -659
-45 -69 -163 -202 -176 -197 -4 2 -44 34 -88 72 l-81 69 63 67 c154 162 258
411 282 674 l7 76 -156 0 -156 0 0 105 0 105 160 0 160 0 0 115 c0 63 -3 115
-7 115 -5 0 -57 -16 -117 -35 -60 -19 -113 -35 -117 -35 -9 0 -123 190 -117
195 2 2 40 13 86 24 188 48 389 130 492 199 25 17 48 31 51 31 4 1 34 -35 68
-78z m-1889 -781 l0 -110 205 0 205 0 0 -105 0 -105 -205 0 -205 0 0 -170 0
-170 255 0 255 0 0 -100 0 -100 -620 0 -620 0 0 100 0 100 260 0 260 0 0 170
0 170 -205 0 -206 0 3 103 3 102 203 3 202 2 0 110 0 110 105 0 105 0 0 -110z
m-768 -307 c27 -60 108 -267 108 -277 0 -2 -6 -6 -12 -9 -7 -3 -48 -21 -90
-41 l-77 -35 -32 97 c-18 53 -49 139 -70 189 l-37 93 76 24 c43 13 83 24 90
25 7 1 27 -29 44 -66z m-293 -37 c24 -95 80 -421 73 -427 -4 -4 -48 -16 -99
-27 l-92 -19 -5 26 c-3 14 -8 53 -11 86 -3 33 -17 127 -31 208 -14 82 -23 152
-19 155 7 7 129 39 156 41 12 1 20 -13 28 -43z m-304 5 l40 -7 -3 -59 c-4 -90
-30 -258 -58 -370 -14 -54 -26 -100 -27 -102 -3 -3 -188 55 -194 61 -3 2 4 37
16 78 23 85 47 210 56 288 3 30 8 72 11 93 l6 38 56 -7 c32 -3 75 -9 97 -13z
m1127 -1698 c48 -9 88 -20 88 -24 0 -5 -11 -38 -24 -74 l-24 -65 274 0 274 0
0 -81 c0 -77 -3 -87 -49 -183 -58 -118 -127 -225 -205 -316 -31 -36 -56 -68
-56 -72 0 -24 301 -186 432 -233 l77 -27 -60 -90 c-64 -95 -61 -93 -126 -73
l-23 7 0 -441 0 -441 -105 0 -105 0 0 45 0 45 -255 0 -255 0 0 -45 0 -45 -105
0 -105 0 0 440 0 440 -36 -15 c-20 -8 -40 -15 -44 -15 -9 0 -130 156 -130 168
0 5 15 15 33 22 122 49 455 232 473 261 3 6 -14 36 -38 67 -25 31 -62 84 -84
117 -21 33 -39 62 -41 64 -1 2 -31 -24 -65 -57 -35 -33 -75 -70 -89 -81 l-27
-21 -58 78 -59 77 -3 -132 -3 -133 -109 0 -110 0 0 -160 0 -159 108 -3 107 -3
3 -102 3 -103 -111 0 -110 0 0 -180 c0 -99 1 -180 3 -180 4 0 228 76 250 85
16 7 17 -2 17 -108 l0 -114 -153 -51 c-247 -82 -681 -201 -693 -189 -3 2 -17
49 -33 103 -31 109 -31 110 37 120 l42 6 0 409 0 409 100 0 100 0 0 -381 0
-381 36 7 c20 3 47 10 60 15 l24 10 0 475 0 475 -160 0 -160 0 0 390 0 390
375 0 375 0 0 -240 c0 -132 3 -240 6 -240 3 0 35 26 71 57 136 120 252 294
316 476 8 21 18 21 129 0z m2002 -48 l97 -45 -32 -58 c-88 -156 -224 -320
-368 -445 -98 -85 -217 -177 -230 -177 -6 0 -71 195 -71 213 0 2 33 29 73 60
144 110 304 291 383 434 20 35 39 63 44 63 4 0 51 -20 104 -45z m1416 -175 l0
-110 -565 0 -565 0 0 110 0 110 565 0 565 0 0 -110z m-1313 -352 c51 -24 93
-47 93 -53 0 -19 -91 -166 -160 -257 l-70 -93 0 -572 0 -573 -110 0 -110 0 -2
461 -3 460 -90 -72 c-49 -39 -109 -84 -132 -100 l-41 -29 -20 68 c-50 165 -48
151 -23 169 200 140 405 359 517 554 25 43 49 79 52 79 4 0 49 -19 99 -42z
m1411 -225 l-3 -108 -177 -3 -178 -2 0 -503 c0 -551 -2 -577 -57 -629 -64 -59
-80 -63 -314 -66 l-217 -4 -22 99 c-12 54 -23 103 -25 109 -2 7 52 9 180 6
176 -4 183 -4 204 17 21 21 21 25 21 496 l0 475 -350 0 -350 0 0 110 0 110
645 0 646 0 -3 -107z"/>
<path d="M3805 7518 c27 -92 148 -283 220 -348 l27 -25 40 45 c71 79 124 153
177 245 28 49 51 93 51 97 0 4 -117 8 -261 8 l-260 0 6 -22z"/>
<path d="M6890 7271 c0 -40 41 -148 75 -198 37 -55 94 -93 138 -93 36 0 88 39
125 94 17 26 32 52 32 56 0 13 -332 160 -362 160 -4 0 -8 -9 -8 -19z"/>
<path d="M2860 4115 l0 -185 165 0 165 0 0 185 0 185 -165 0 -165 0 0 -185z"/>
<path d="M3843 4181 c-10 -15 -4 -29 35 -88 63 -94 144 -193 159 -193 23 0
223 261 223 292 0 4 -91 8 -203 8 -186 0 -203 -1 -214 -19z"/>
<path d="M3914 3524 c-62 -41 -163 -101 -225 -134 l-114 -60 460 1 460 0 -111
53 c-116 56 -229 124 -301 182 -23 19 -45 34 -50 34 -4 -1 -58 -35 -119 -76z"/>
<path d="M3780 2935 l0 -195 255 0 255 0 0 195 0 195 -255 0 -255 0 0 -195z"/>
</g>
</svg>
